<svg id="Layer_2" data-name="Layer 2" xmlns="http://www.w3.org/2000/svg" viewBox="0 0 720 240">
  <defs>
    <style>
      .ms-foreground {
        fill: #000;
      }

      .ms-background {
        fill: #fff;
      }

      @media (prefers-color-scheme: light) {
        svg {
          filter: invert(100%);
        }
      }
    </style>
  </defs>
  <rect class="ms-foreground" width="720" height="240"/>
  <g>
    <path class="ms-background" d="M272.46,67.48h214.21l-35.02,105.05h-218.33l39.13-105.05Z"/>
    <path class="ms-foreground" d="M366.63,86.02c14.64,0,16.41,8.63,16.38,13.9-.03,5.28-3.54,14.64-3.54,14.64l-13.97,38.46h-16.9l14.23-39.07c2.06-5.86,3.22-15.06-5.47-15.06-11.62,0-16.87,9.31-19.03,15.34-4.69,13.05-9.44,25.88-14.15,38.8h-15.45l14.23-39.07c2.06-5.86,3.22-15.06-5.47-15.06-10.23,0-16,7.43-18.17,13.58l-14.69,40.49-16.99.03,24.11-65.94h15.32l-2.47,9.63c4.23-4.69,11.52-10.66,22.16-10.66,13.06,0,15.57,8.99,15.19,13.57,2.99-4.57,11.18-13.57,24.68-13.57Z"/>
    <path class="ms-foreground" d="M428.62,86.01c-24.46,0-34.05,13.39-37.27,20.53-2.04,4.53-2.43,14.41,12.29,17.7,17.27,3.86,18.04,3.69,20.63,6.05,2.9,2.64.48,12.49-15.48,12.42-13.45,0-11.14-10.17-11.14-10.17h-17.51c-2.64,7.42-1.63,22.27,23.49,22.27,30.51,0,37.52-17.15,37.69-17.51,5.88-12.93-2.39-18.74-19.28-21.66-10.97-1.9-15.06-4.22-14-8.14.95-3.52,6.22-9.59,15.54-9.59s10.92,6.39,10.56,9.59h17.25c1.21-7.08-.13-21.5-22.79-21.5Z"/>
  </g>
</svg>