<svg width="123" height="51" viewBox="0 0 123 51" fill="none" xmlns="http://www.w3.org/2000/svg">
<path d="M19 0H123L106 51H0L19 0Z" fill="white"/>
<path d="M64.7194 9.00073C71.8288 9.00073 72.6882 13.1882 72.6725 15.7507C72.6569 18.3132 70.9538 22.8601 70.9538 22.8601L64.1725 41.532H55.9694L62.8757 22.5632C63.8757 19.7195 64.4382 15.2507 60.2194 15.2507C54.5781 15.2507 52.0295 19.7714 50.9787 22.6968C48.7031 29.032 46.3952 35.2616 44.1093 41.532H36.6093L43.5156 22.5632C44.5156 19.7195 45.0781 15.2507 40.8593 15.2507C35.8906 15.2507 33.093 18.8601 32.0364 21.8416L24.9055 41.5007L16.6555 41.5164L28.3586 9.50073H35.7961L34.5989 14.1755C36.6521 11.9004 40.1938 9.00073 45.3593 9.00073C51.698 9.00073 52.9171 13.3671 52.7363 15.5876C54.1882 13.367 58.1636 9.00073 64.7194 9.00073Z" fill="black"/>
<path d="M94.8171 9C82.9421 9 78.2851 15.5 76.7234 18.9688C75.7338 21.1667 75.5421 25.9625 82.6921 27.5625C91.0755 29.4385 91.4491 29.3532 92.7077 30.5C94.114 31.7812 92.9421 36.5625 85.1921 36.5312C78.6609 36.5312 79.7859 31.5938 79.7859 31.5938H71.2859C70.0046 35.1979 70.4921 42.4062 82.6921 42.4062C97.5046 42.4062 100.91 34.0793 100.989 33.9062C103.842 27.6305 99.8273 24.809 91.6296 23.3906C86.3015 22.4688 84.3197 21.3432 84.8327 19.4375C85.2933 17.7268 87.8546 14.7812 92.3796 14.7812C96.9046 14.7812 97.6817 17.8854 97.5046 19.4375H105.88C106.469 16 105.817 9 94.8171 9Z" fill="black"/>
</svg>
